# xmcd
#
# Track frame offsets:
#	150
#	14730
#	30220
#	47228
#	63288
#	76480
#	92988
#	107918
#	121570
#	136388
#	147793
#	160313
#
# Disc length: 2354 seconds
#
# Revision: 1
# Processed by: cddbd v1.5.2PL0 Copyright (c) Steve Scherf et al.
# Submitted via: audiograbber 1.83.01
#
DISCID=9b09300c
DTITLE=OLIVIA NEWTON JOHN - GREATEST HITS COLLECTION
DYEAR=1900
DGENRE=Country
TTITLE0=IF YOU LOVE ME (LET ME GO)
TTITLE1=PLEASE MR. PLEASE
TTITLE2=LOVE SONG
TTITLE3=HAVE YOU NEVER BEEN MELLOW
TTITLE4=IF NOT FOR YOU
TTITLE5=I HONESTLY LOVE YOU
TTITLE6=COUNTRY ROADS (TAKE ME HOME)
TTITLE7=LET ME BE THERE
TTITLE8=BANKS OF THE OHIO
TTITLE9=CHANGES
TTITLE10=LONG LIVE LOVE
TTITLE11=AMOURESSE
EXTD=
EXTT0=
EXTT1=
EXTT2=
EXTT3=
EXTT4=
EXTT5=
EXTT6=
EXTT7=
EXTT8=
EXTT9=
EXTT10=
EXTT11=
PLAYORDER=
